<svg width="40" height="29" viewBox="0 0 40 29" fill="none" xmlns="http://www.w3.org/2000/svg">
<path d="M35.1197 0H4.61538C2.06638 0 0 2.08015 0 4.64615V23.5077C0 26.0737 2.06638 28.1538 4.61538 28.1538H35.1197C37.6687 28.1538 39.7351 26.0737 39.7351 23.5077V4.64615C39.7351 2.08015 37.6687 0 35.1197 0Z" fill="white"/>
<path d="M12.2589 13.2467C12.2589 12.0775 13.2064 11.5236 13.2523 11.4929C12.7174 10.6929 11.8768 10.6006 11.5864 10.5852C10.8376 10.539 10.1957 11.0159 9.84421 11.0159C9.49271 11.0159 8.94253 10.6159 8.3465 10.6159C7.58237 10.6159 6.86408 11.0621 6.46673 11.7698C5.65674 13.1698 6.25277 15.2467 7.03219 16.3852C7.41426 16.9544 7.87274 17.5698 8.48405 17.5544C9.04951 17.539 9.27875 17.1852 9.96647 17.1852C10.6542 17.1852 10.8682 17.5544 11.4642 17.5544C12.0908 17.5544 12.4881 16.9852 12.8702 16.4313C13.3134 15.7852 13.4815 15.1698 13.4968 15.139C13.4968 15.139 12.2894 14.6621 12.2742 13.2775L12.2589 13.2467Z" fill="black"/>
<path d="M11.5851 8.37109C11.1266 8.38648 10.5612 8.67879 10.2402 9.07879C9.94986 9.41725 9.69006 9.97109 9.75119 10.4942C10.2708 10.5403 10.7904 10.2326 11.1114 9.84802C11.4323 9.44802 11.6462 8.92494 11.5851 8.37109Z" fill="black"/>
<path d="M24.913 11.2634C23.5223 11.2634 22.4983 12.0634 22.4678 13.1557H23.6445C23.7362 12.6327 24.2253 12.2942 24.8824 12.2942C25.6771 12.2942 26.1356 12.6634 26.1356 13.3557V13.8173L24.5004 13.9096C22.9874 14.0019 22.1621 14.6327 22.1621 15.7096C22.1621 16.7865 23.0027 17.5404 24.2253 17.5404C25.0505 17.5404 25.7994 17.125 26.1509 16.4634H26.1815V17.4788H27.3888V13.2634C27.3888 12.048 26.4107 11.248 24.9283 11.248L24.913 11.2634ZM26.1203 15.1865C26.1203 15.9865 25.4479 16.5404 24.5615 16.5404C23.8585 16.5404 23.4306 16.2019 23.4306 15.6942C23.4306 15.1865 23.8585 14.848 24.6685 14.8019L26.1203 14.7096V15.1865Z" fill="black"/>
<path d="M32.3587 11.3398L30.8151 16.3398H30.7846L29.241 11.3398H27.8809L30.0969 17.5091L29.9746 17.8783C29.7759 18.5091 29.455 18.7552 28.8742 18.7552C28.7673 18.7552 28.5686 18.7552 28.4922 18.7398V19.7552C28.4922 19.7552 28.8895 19.786 28.9812 19.786C30.2497 19.786 30.8457 19.2937 31.3806 17.8168L33.673 11.3398H32.3434H32.3587Z" fill="black"/>
<path d="M19.0604 9.01562H15.9121V17.4772H17.2111V14.5849H19.0145C20.665 14.5849 21.8265 13.4464 21.8265 11.8002C21.8265 10.1541 20.6956 9.01562 19.0604 9.01562ZM18.7088 13.4772H17.2111V10.1233H18.7088C19.8398 10.1233 20.4816 10.7387 20.4816 11.8002C20.4816 12.8618 19.8398 13.4772 18.6936 13.4772H18.7088Z" fill="black"/>
</svg>
