<?xml version="1.0" encoding="utf-8"?>
<!-- Generator: Adobe Illustrator 22.1.0, SVG Export Plug-In . SVG Version: 6.00 Build 0)  -->
<svg version="1.1" id="Layer_1" xmlns="http://www.w3.org/2000/svg" xmlns:xlink="http://www.w3.org/1999/xlink" x="0px" y="0px"
	 width="40px" height="29px" viewBox="0 0 40 29" style="enable-background:new 0 0 40 29;" xml:space="preserve">
<style type="text/css">
	.st0{fill:#FFFFFF;}
	.st1{fill:#3C4043;}
	.st2{fill:#4285F4;}
	.st3{fill:#34A853;}
	.st4{fill:#FABB05;}
	.st5{fill:#E94235;}
</style>
<path class="st0" d="M35.1,0H4.6C2.1,0,0,2.1,0,4.6v18.9c0,2.6,2.1,4.6,4.6,4.6h30.5c2.5,0,4.6-2.1,4.6-4.6V4.6
	C39.7,2.1,37.7,0,35.1,0z"/>
<path class="st1" d="M18.8,14.5v4.2h-1.3V8.3H21c0.9,0,1.7,0.3,2.3,0.9c0.6,0.6,1,1.3,1,2.2c0,0.9-0.3,1.6-1,2.2
	c-0.6,0.6-1.4,0.9-2.3,0.9L18.8,14.5L18.8,14.5L18.8,14.5z M18.8,9.5v3.6H21c0.5,0,1-0.2,1.3-0.5c0.4-0.4,0.5-0.8,0.5-1.3
	c0-0.5-0.2-0.9-0.5-1.3C22,9.7,21.6,9.6,21,9.6L18.8,9.5C18.8,9.6,18.8,9.5,18.8,9.5z M27.7,11.3c1,0,1.8,0.3,2.3,0.8
	s0.9,1.3,0.9,2.2v4.4h-1.3v-1h-0.1c-0.5,0.8-1.3,1.2-2.2,1.2c-0.8,0-1.4-0.2-2-0.7c-0.5-0.5-0.8-1-0.8-1.7c0-0.7,0.3-1.3,0.8-1.8
	c0.6-0.4,1.3-0.7,2.2-0.7c0.8,0,1.4,0.1,2,0.4v-0.3c0-0.5-0.2-0.9-0.5-1.2c-0.4-0.3-0.8-0.5-1.3-0.5c-0.7,0-1.3,0.3-1.8,0.9
	l-1.2-0.7C25.5,11.8,26.5,11.3,27.7,11.3L27.7,11.3z M26,16.5c0,0.3,0.1,0.6,0.4,0.9c0.3,0.2,0.6,0.3,1,0.3c0.6,0,1.1-0.2,1.5-0.6
	c0.4-0.4,0.7-0.9,0.7-1.5c-0.4-0.3-1-0.5-1.7-0.5c-0.5,0-1,0.1-1.4,0.4C26.2,15.8,26,16.1,26,16.5z M38.2,11.5l-4.4,10.3h-1.4
	l1.7-3.6l-2.9-6.7h1.5l2.1,5.1h0l2.1-5.1H38.2z"/>
<path class="st2" d="M13.5,13.6c0-0.4,0-0.9-0.1-1.3H7.8v2.3l3.2,0c-0.1,0.8-0.6,1.4-1.2,1.9V18h1.9C12.8,17,13.5,15.4,13.5,13.6
	L13.5,13.6z"/>
<path class="st3" d="M9.8,16.5c-0.5,0.4-1.2,0.6-2,0.6c-1.6,0-2.9-1-3.3-2.5h-2v1.5c1,1.9,3,3.3,5.3,3.3c1.6,0,3-0.5,3.9-1.4
	L9.8,16.5L9.8,16.5z"/>
<path class="st4" d="M4.3,13.5c0-0.4,0.1-0.8,0.2-1.1v-1.5h-2c-0.4,0.8-0.6,1.7-0.6,2.7c0,1,0.2,1.9,0.6,2.7l2-1.5
	C4.3,14.2,4.3,13.9,4.3,13.5L4.3,13.5z"/>
<path class="st5" d="M7.8,9.9c0.9,0,1.7,0.3,2.3,0.9l1.7-1.7c-1-1-2.4-1.6-4-1.6c-2.3,0-4.3,1.3-5.3,3.3l2,1.5
	C4.9,10.9,6.2,9.9,7.8,9.9z"/>
</svg>
