<?xml version="1.0" encoding="utf-8"?>
<!-- Generator: Adobe Illustrator 26.0.2, SVG Export Plug-In . SVG Version: 6.00 Build 0)  -->
<svg version="1.1" id="Layer_1" xmlns="http://www.w3.org/2000/svg" xmlns:xlink="http://www.w3.org/1999/xlink" x="0px" y="0px"
	 viewBox="0 0 32 32" style="enable-background:new 0 0 32 32;" xml:space="preserve">
<style type="text/css">
	.st0{fill:none;stroke:#FFFFFF;stroke-width:2;}
	.st1{fill:#FEFEFE;}
</style>
<path class="st0" d="M16,1L16,1c8.3,0,15,6.7,15,15l0,0c0,8.3-6.7,15-15,15l0,0C7.7,31,1,24.3,1,16l0,0C1,7.7,7.7,1,16,1z"/>
<g>
	<path class="st1" d="M24,23.4c-0.4-0.6-0.8-1.1-1.2-1.7c-1.7-2.3-3.5-4.6-5.2-7c0,0,0-0.1,0-0.1c0.6-0.7,1.2-1.3,1.8-2
		c1.1-1.2,2.2-2.4,3.3-3.6c0.2-0.2,0.4-0.4,0.6-0.6c0,0-0.1,0-0.1,0c-0.4,0-0.8,0-1.2,0c0,0-0.1,0-0.1,0c0,0,0,0-0.1,0
		C21.4,9,21,9.4,20.6,9.8c-1.2,1.3-2.5,2.7-3.7,4c0,0-0.1,0-0.1,0c-0.8-1.1-1.6-2.1-2.4-3.2c-0.5-0.7-1.1-1.5-1.6-2.2
		c0,0-0.1,0-0.1,0c-0.8,0-1.6,0-2.4,0c-0.7,0-1.4,0-2.1,0c0,0-0.1,0-0.1,0c0.1,0.1,0.1,0.2,0.2,0.3c2,2.6,3.9,5.3,5.9,7.9
		c0,0,0,0.1,0,0.1c-0.5,0.6-1.1,1.2-1.6,1.7c-1.4,1.5-2.8,3-4.2,4.5c-0.1,0.1-0.3,0.3-0.4,0.4c0,0,0,0,0,0c0.4,0,0.9,0,1.3,0
		c0,0,0.1,0,0.1,0c0.2-0.2,0.4-0.4,0.5-0.6c1.5-1.7,3.1-3.3,4.6-5c0.1-0.1,0.2-0.2,0.3-0.3c0,0,0,0,0.1,0.1c1,1.3,2,2.6,2.9,3.9
		c0.5,0.6,0.9,1.3,1.4,1.9c0,0,0,0,0,0C20.8,23.5,22.4,23.5,24,23.4C24,23.5,24,23.5,24,23.4C24,23.5,24,23.5,24,23.4z M21.9,22.5
		c-0.7,0-1.3,0-2,0c-0.1,0-0.1,0-0.1-0.1c-1.9-2.5-3.8-5.1-5.7-7.6c-1.3-1.7-2.6-3.4-3.8-5.1c0,0-0.1-0.1-0.1-0.1c0.5,0,1,0,1.5,0
		c0.2,0,0.4,0,0.6,0c0,0,0.1,0,0.1,0c1.7,2.2,3.3,4.4,5,6.7c1,1.4,2.1,2.8,3.1,4.2C20.9,21.1,21.4,21.7,21.9,22.5
		C21.9,22.4,21.9,22.4,21.9,22.5C21.9,22.5,21.9,22.5,21.9,22.5z"/>
</g>
</svg>
