<svg width="32" height="23" viewBox="0 0 32 23" fill="none" xmlns="http://www.w3.org/2000/svg">
<rect x="0.5" y="0.5" width="31" height="21.0952" rx="3.5" fill="#F4B6C7" stroke="#F3F3F3"/>
<path fill-rule="evenodd" clip-rule="evenodd" d="M4.08993 14.2494H2.75862V8.28571H4.08993V14.2494ZM7.41504 8.28571H6.11221C6.11221 9.38317 5.62126 10.3905 4.76529 11.0495L4.24913 11.4468L6.24908 14.2496H7.89341L6.0532 11.6706C6.92549 10.7778 7.41504 9.57679 7.41504 8.28571ZM9.53874 14.2477H8.28148V8.28685H9.53874V14.2477ZM13.3388 10.1244V10.3881C12.9995 10.1502 12.5899 10.0104 12.1481 10.0104C10.979 10.0104 10.0312 10.9845 10.0312 12.1861C10.0312 13.3878 10.979 14.3619 12.1481 14.3619C12.5899 14.3619 12.9995 14.2221 13.3388 13.9842V14.2477H14.5401V10.1244H13.3388ZM13.3349 12.1861C13.3349 12.772 12.8475 13.2471 12.2464 13.2471C11.6453 13.2471 11.158 12.772 11.158 12.1861C11.158 11.6002 11.6453 11.1253 12.2464 11.1253C12.8475 11.1253 13.3349 11.6002 13.3349 12.1861ZM26.0113 10.3881V10.1244H27.2124V14.2477H26.0113V13.9842C25.6719 14.2221 25.2623 14.3619 24.8205 14.3619C23.6513 14.3619 22.7035 13.3878 22.7035 12.1861C22.7035 10.9845 23.6513 10.0104 24.8205 10.0104C25.2623 10.0104 25.6719 10.1502 26.0113 10.3881ZM24.9188 13.2471C25.52 13.2471 26.0072 12.772 26.0072 12.1861C26.0072 11.6002 25.52 11.1253 24.9188 11.1253C24.3177 11.1253 23.8304 11.6002 23.8304 12.1861C23.8304 12.772 24.3177 13.2471 24.9188 13.2471ZM27.7338 13.56C27.7338 13.1321 28.0713 12.7852 28.4876 12.7852C28.9039 12.7852 29.2414 13.1321 29.2414 13.56C29.2414 13.9878 28.9039 14.3346 28.4876 14.3346C28.0713 14.3346 27.7338 13.9878 27.7338 13.56ZM20.5691 10.0134C20.0892 10.0134 19.6351 10.1666 19.3315 10.589V10.1246H18.1355V14.2477H19.3462V12.0809C19.3462 11.4539 19.7553 11.1468 20.2479 11.1468C20.7758 11.1468 21.0793 11.4709 21.0793 12.0723V14.2477H22.2791V11.6256C22.2791 10.666 21.5368 10.0134 20.5691 10.0134ZM16.3983 10.1244V10.6615C16.6391 10.3393 17.0877 10.1247 17.5755 10.1247V11.3245L17.5689 11.3242L17.5613 11.324C17.086 11.324 16.401 11.6731 16.401 12.3226V14.2477H15.1685V10.1244H16.3983Z" fill="#17120F"/>
</svg>
